<?xml version="1.0" encoding="UTF-8"?>
<svg id="Livello_1" data-name="Livello 1" xmlns="http://www.w3.org/2000/svg" viewBox="0 0 512 512">
  <defs>
    <style>
      .cls-1 {
        fill: #fff;
      }
    </style>
  </defs>
  <path class="cls-1" d="M410.48,288.44c-41.48-36.26-87.3-41.89-102.67-43.11h-109.33c-15.06,1.94-69.88,10.84-112.44,58.67-31.1,34.94-39.84,72.91-42.67,89.78v90.67c-.15,1.53-.36,5.72,2.22,9.78,4.47,7.02,13.14,7.11,13.78,7.11h390.67c1.94-.29,7.24-1.33,12-5.78,4.95-4.62,6.29-10.1,6.67-12v-89.78c-2.32-14.35-12.33-65.22-58.22-105.33ZM425.6,458.67H83.82c.59-20,1.19-40,1.78-60,1.99-12.81,7.74-38.02,27.11-62.22,30.35-37.94,72.33-46.17,83.56-48h114.67c11.04,1.33,46.79,7.03,77.33,37.33,28.72,28.5,35.52,61.57,37.33,72.89v60Z"/>
  <path class="cls-1" d="M255.58,10.67c-59.24,0-107.26,48.02-107.26,107.26s48.02,107.26,107.26,107.26,107.26-48.02,107.26-107.26S314.81,10.67,255.58,10.67ZM255.21,182.67c-35.66,0-64.57-29.15-64.57-65.11s28.91-65.11,64.57-65.11,64.57,29.15,64.57,65.11-28.91,65.11-64.57,65.11Z"/>
</svg>