<?xml version="1.0" encoding="UTF-8"?>
<svg id="Livello_1" data-name="Livello 1" xmlns="http://www.w3.org/2000/svg" viewBox="0 0 512 512">
  <defs>
    <style>
      .cls-1 {
        fill: #fff;
        isolation: isolate;
      }
    </style>
  </defs>
  <path class="cls-1" d="M447.98,143.66c.18-5.05.72-33.27-21.33-56.3-23.41-24.45-53.93-23.87-58.67-23.7h-224c-5.45.29-40.7,2.75-63.41,32.59-14.49,19.04-16.31,39.29-16.59,47.41v225.19c-.06,6.86.6,30.17,17.78,50.96,23.2,28.08,57.44,28.47,62.22,28.44h224c4.98.04,36.02-.2,59.26-25.48,20.44-22.25,20.8-48.61,20.74-54.52v-224.59ZM415.98,368.25c.01,3.03-.23,21.65-15.41,35.56-12.99,11.9-28.28,12.42-32,12.44h-224c-3.03-.08-25.29-1.05-39.11-19.56-8.55-11.45-9.41-23.63-9.48-28.44v-224c.28-4.76,1.7-18.09,11.85-30.22,13.79-16.48,33.14-18.13,36.74-18.37h224c3.15.08,21.33.87,34.96,16,12,13.32,12.44,28.82,12.44,32.59v224Z"/>
  <path class="cls-1" d="M341.91,176.84c-12.29-15.64-30.35-17.02-33.19-17.19h-106.07c-4.84,1.02-19.52,4.76-30.81,18.37-7.58,9.14-10.23,18.63-11.26,23.7v109.63c.69,4.01,3.41,16.74,14.81,27.26,10.9,10.05,23.13,11.98,27.26,12.44h107.85c3.9-.48,17.88-2.69,29.04-14.81,8.98-9.76,11.21-20.6,11.85-24.89v-103.11c.26-3.52.93-18.16-9.48-31.41ZM319.98,210.03v94.22c0,1.25-.12,6.3-4,10.67-4.43,4.99-10.37,5.3-11.41,5.33h-96.59c-1.35-.1-6.9-.67-11.33-5.33-3.79-3.98-4.5-8.56-4.67-10.07v-94.81c-.05-1.27-.13-7.26,4.44-12.44,4.47-5.06,10.26-5.79,11.56-5.93h96c1.08.07,7.84.63,12.44,6.52,3.91,5,3.65,10.52,3.56,11.85Z"/>
  <g>
    <path class="cls-1" d="M63.98,368.25H14.87c-8.27-.78-14.67-7.8-14.67-16.11s6.4-15.33,14.67-16.11h49.11v32.22Z"/>
    <path class="cls-1" d="M63.98,304.25H14.87c-8.27-.78-14.67-7.8-14.67-16.11s6.4-15.33,14.67-16.11h49.11v32.22Z"/>
    <path class="cls-1" d="M63.98,240.25H14.87c-8.27-.78-14.67-7.8-14.67-16.11s6.4-15.33,14.67-16.11h49.11v32.22Z"/>
    <path class="cls-1" d="M63.98,176.25H14.87c-8.27-.78-14.67-7.8-14.67-16.11s6.4-15.33,14.67-16.11h49.11v32.22Z"/>
  </g>
  <g>
    <path class="cls-1" d="M144.09,63.75V14.64C144.87,6.37,151.9-.03,160.2-.03s15.33,6.4,16.11,14.67v49.11h-32.22Z"/>
    <path class="cls-1" d="M208.09,63.75V14.64C208.87,6.37,215.9-.03,224.2-.03s15.33,6.4,16.11,14.67v49.11h-32.22Z"/>
    <path class="cls-1" d="M272.09,63.75V14.64c.78-8.27,7.8-14.67,16.11-14.67s15.33,6.4,16.11,14.67v49.11h-32.22Z"/>
    <path class="cls-1" d="M336.09,63.75V14.64c.78-8.27,7.8-14.67,16.11-14.67s15.33,6.4,16.11,14.67v49.11h-32.22Z"/>
  </g>
  <g>
    <path class="cls-1" d="M448.02,143.25h49.11c8.27.78,14.67,7.8,14.67,16.11s-6.4,15.33-14.67,16.11h-49.11v-32.22Z"/>
    <path class="cls-1" d="M448.02,207.25h49.11c8.27.78,14.67,7.8,14.67,16.11s-6.4,15.33-14.67,16.11h-49.11v-32.22Z"/>
    <path class="cls-1" d="M448.02,271.25h49.11c8.27.78,14.67,7.8,14.67,16.11s-6.4,15.33-14.67,16.11h-49.11v-32.22Z"/>
    <path class="cls-1" d="M448.02,335.25h49.11c8.27.78,14.67,7.8,14.67,16.11s-6.4,15.33-14.67,16.11h-49.11v-32.22Z"/>
  </g>
  <g>
    <path class="cls-1" d="M368.31,448.25v49.11c-.78,8.27-7.8,14.67-16.11,14.67s-15.33-6.4-16.11-14.67v-49.11h32.22Z"/>
    <path class="cls-1" d="M304.31,448.25v49.11c-.78,8.27-7.8,14.67-16.11,14.67s-15.33-6.4-16.11-14.67v-49.11h32.22Z"/>
    <path class="cls-1" d="M240.31,448.25v49.11c-.78,8.27-7.8,14.67-16.11,14.67s-15.33-6.4-16.11-14.67v-49.11h32.22Z"/>
    <path class="cls-1" d="M176.31,448.25v49.11c-.78,8.27-7.8,14.67-16.11,14.67s-15.33-6.4-16.11-14.67v-49.11h32.22Z"/>
  </g>
</svg>