<?xml version="1.0" encoding="UTF-8"?>
<svg id="Livello_1" data-name="Livello 1" xmlns="http://www.w3.org/2000/svg" viewBox="0 0 512 512">
  <defs>
    <style>
      .cls-1 {
        fill: #fff;
      }
    </style>
  </defs>
  <path class="cls-1" d="M192.13,207.75c2.21-9.72,10.92-16.67,20.89-16.67s18.68,6.95,20.89,16.67v158.67c-2.39,9.24-10.37,15.88-19.56,16.44-10.09.62-19.54-6.24-22.22-16.44v-158.67Z"/>
  <path class="cls-1" d="M277.46,207.75c2.21-9.72,10.92-16.67,20.89-16.67s18.68,6.95,20.89,16.67v158.67c-2.39,9.24-10.37,15.88-19.56,16.44-10.09.62-19.54-6.24-22.22-16.44v-158.67Z"/>
  <path class="cls-1" d="M426.91,84.24h-85.89v-43.6c-.07-1.63-.54-8.61-6.22-14.22-4.48-4.42-9.66-5.48-11.56-5.78h-135.56c-1.8.21-8.22,1.17-13.33,6.67-3.84,4.13-4.96,8.68-5.33,10.67v46.27h-88.67c-10.2,2.76-17.06,12.45-16.44,22.81.56,9.43,7.21,17.62,16.44,20.08h346.56c11.68-.12,21.22-9.76,21.22-21.44s-9.54-21.32-21.22-21.44ZM213.02,84.24v-20.93h85.33v20.93h-85.33Z"/>
  <path class="cls-1" d="M405.46,148.44c-10.23,0-19.17,6.95-21.44,16.67v247.09c-.78,3.82-3.48,14.56-13.22,23.56-11.1,10.25-23.93,11.36-27.56,11.56h-177.78c-2.94-.21-17.76-1.59-28.44-14.22-7.62-9.01-9-18.85-9.33-22.67v-245.31c-2.27-9.72-11.22-16.67-21.44-16.67s-19.17,6.95-21.44,16.67v244.86c.21,6.43,1.83,33.13,23.33,55.56,22.93,23.92,51.83,25.62,57.78,25.84h177.78c6.23,0,33.07-.68,56.15-21.64,23.79-21.6,26.6-49.31,27.07-55.31v-249.31c-2.27-9.72-11.22-16.67-21.44-16.67Z"/>
</svg>