<?xml version="1.0" encoding="UTF-8"?>
<svg id="Livello_1" data-name="Livello 1" xmlns="http://www.w3.org/2000/svg" viewBox="0 0 512 512">
  <defs>
    <style>
      .cls-1 {
        fill: #fff;
      }
    </style>
  </defs>
  <path class="cls-1" d="M92.36,68.85c-29.58,0-53.56,23.98-53.56,53.56s23.98,53.56,53.56,53.56,53.56-23.98,53.56-53.56-23.98-53.56-53.56-53.56ZM92.36,151.04c-15.99,0-28.94-12.96-28.94-28.94s12.96-28.94,28.94-28.94,28.94,12.96,28.94,28.94-12.96,28.94-28.94,28.94Z"/>
  <path class="cls-1" d="M92.36,202.43c-29.58,0-53.56,23.98-53.56,53.56s23.98,53.56,53.56,53.56,53.56-23.98,53.56-53.56-23.98-53.56-53.56-53.56ZM92.36,284.61c-15.99,0-28.94-12.96-28.94-28.94s12.96-28.94,28.94-28.94,28.94,12.96,28.94,28.94-12.96,28.94-28.94,28.94Z"/>
  <path class="cls-1" d="M92.36,336.04c-29.58,0-53.56,23.98-53.56,53.56s23.98,53.56,53.56,53.56,53.56-23.98,53.56-53.56-23.98-53.56-53.56-53.56ZM92.36,418.22c-15.99,0-28.94-12.96-28.94-28.94s12.96-28.94,28.94-28.94,28.94,12.96,28.94,28.94-12.96,28.94-28.94,28.94Z"/>
  <path class="cls-1" d="M458.97,216.65c-8.32-6.38-17.01-7.35-20.44-7.56h-240.89c-4,.98-11.95,3.5-19.56,10.28-8.16,7.28-11.56,15.58-12.89,19.5v30.67c.59,3.93,2.13,10.41,6.67,16.89,8.8,12.57,22.27,15.73,25.78,16.44h241.78c3.42-.57,14.6-2.88,23.56-12.89,7.36-8.23,9.22-17.21,9.78-20.89v-30.22c-.61-3-3.25-14.15-13.78-22.22ZM447.86,266.93c-.35,1.06-1.65,4.55-5.34,6.99-3.88,2.56-7.81,2.24-8.88,2.12-77.93-.15-155.85-.3-233.78-.44-1.15-.32-3.76-1.2-6.07-3.63-2.18-2.29-2.97-4.77-3.26-5.93v-21.04c.29-1.09,1.08-3.49,3.26-5.63,2.54-2.49,5.43-3.14,6.52-3.33h236.44c1.18.17,4.28.78,7.11,3.33,2.74,2.47,3.69,5.36,4,6.52v21.04Z"/>
  <path class="cls-1" d="M459.19,350.26c-8.32-6.38-17.01-7.35-20.44-7.56h-240.89c-4,.98-11.95,3.5-19.56,10.28-8.16,7.28-11.56,15.58-12.89,19.5v30.67c.59,3.93,2.13,10.41,6.67,16.89,8.8,12.57,22.27,15.73,25.78,16.44h241.78c3.42-.57,14.6-2.88,23.56-12.89,7.36-8.23,9.22-17.21,9.78-20.89v-30.22c-.61-3-3.25-14.15-13.78-22.22ZM448.08,400.53c-.35,1.06-1.65,4.55-5.34,6.99-3.88,2.56-7.81,2.24-8.88,2.12-77.93-.15-155.85-.3-233.78-.44-1.15-.32-3.76-1.2-6.07-3.63-2.18-2.29-2.97-4.77-3.26-5.93v-21.04c.29-1.09,1.08-3.49,3.26-5.63,2.54-2.49,5.43-3.14,6.52-3.33h236.44c1.18.17,4.28.78,7.11,3.33,2.74,2.47,3.69,5.36,4,6.52v21.04Z"/>
  <path class="cls-1" d="M459.42,83.07c-8.32-6.38-17.01-7.35-20.44-7.56h-240.89c-4,.98-11.95,3.5-19.56,10.28-8.16,7.28-11.56,15.58-12.89,19.5v30.67c.59,3.93,2.13,10.41,6.67,16.89,8.8,12.57,22.27,15.73,25.78,16.44h241.78c3.42-.57,14.6-2.88,23.56-12.89,7.36-8.23,9.22-17.21,9.78-20.89v-30.22c-.61-3-3.25-14.15-13.78-22.22ZM448.31,133.35c-.35,1.06-1.65,4.55-5.34,6.99-3.88,2.56-7.81,2.24-8.88,2.12-77.93-.15-155.85-.3-233.78-.44-1.15-.32-3.76-1.2-6.07-3.63-2.18-2.29-2.97-4.77-3.26-5.93v-21.04c.29-1.09,1.08-3.49,3.26-5.63,2.54-2.49,5.43-3.14,6.52-3.33h236.44c1.18.17,4.28.78,7.11,3.33,2.74,2.47,3.69,5.36,4,6.52v21.04Z"/>
</svg>