<?xml version="1.0" encoding="UTF-8"?>
<svg id="Livello_1" data-name="Livello 1" xmlns="http://www.w3.org/2000/svg" viewBox="0 0 96 96">
  <defs>
    <style>
      .cls-1 {
        fill: #fff;
      }
    </style>
  </defs>
  <path class="cls-1" d="M24.92,48.5l22.09,19.09c.57.49,1.41.49,1.98,0l22.09-19.09c1.8-1.55.7-4.5-1.68-4.5h-13.33V11.13c0-1.73-1.4-3.13-3.13-3.13h-9.9c-1.73,0-3.13,1.4-3.13,3.13v32.87h-13.33c-2.38,0-3.47,2.95-1.68,4.5Z"/>
  <path class="cls-1" d="M84,80H12c-2.21,0-4,1.79-4,4s1.79,4,4,4h72c2.21,0,4-1.79,4-4s-1.79-4-4-4Z"/>
</svg>