<?xml version="1.0" encoding="UTF-8"?>
<svg id="Livello_1" data-name="Livello 1" xmlns="http://www.w3.org/2000/svg" viewBox="0 0 90 90">
  <defs>
    <style>
      .cls-1 {
        fill: #fff;
      }
    </style>
  </defs>
  <path class="cls-1" d="M49.77,12.1L12.18,49.69c-4.25,4.25-4.25,11.13,0,15.37l12.75,12.75c4.25,4.25,11.13,4.25,15.37,0l37.59-37.59c4.14-4.14,4.14-10.84,0-14.98l-13.15-13.15c-4.14-4.14-10.84-4.14-14.98,0ZM50.57,56.55c.78.78.78,2.05,0,2.83l-14.26,14.26c-1.8,1.8-4.72,1.8-6.52,0l-13.44-13.44c-1.8-1.8-1.8-4.72,0-6.52l14.26-14.26c.78-.78,2.05-.78,2.83,0l17.13,17.13Z"/>
</svg>