<?xml version="1.0" encoding="UTF-8"?>
<svg id="Livello_2" data-name="Livello 2" xmlns="http://www.w3.org/2000/svg" viewBox="0 0 256 256">
  <defs>
    <style>
      .cls-1 {
        fill: none;
      }

      .cls-2 {
        fill: #e5e5e5;
      }

      .cls-3 {
        fill: #272727;
      }
    </style>
  </defs>
  <rect class="cls-2" width="256" height="256" rx="30.39" ry="30.39"/>
  <path class="cls-3" d="M136.69,129.77l21.8,13c.61-.17,1.09-.72,1.09-1.43v-25.86c0-.58-.31-1.04-.75-1.29-.6-.34-1.49.01-1.49.01-1.68.98-3.37,1.98-5.06,2.99-5.26,3.14-10.38,6.31-15.36,9.5h0s.06.93,0,1.72c-.02.32-.08.79-.23,1.37Z"/>
  <path class="cls-3" d="M189.74,161.4h0c.2.05,1.15.29,2.07-.25.86-.5,1.36-1.48,1.32-2.53l-.03-24.37c0-1.01-1.02-1.74-1.96-1.36-.45.18-.88.4-1.31.65l-21.21,12.59c-.07.04-.14.08-.21.13-.91.57-.87,1.92.06,2.47l21.26,12.68Z"/>
  <g>
    <path class="cls-3" d="M186.45,170.12c.28-.17.41-.5.36-.83-.08-.46-.12-.93-.12-1.41,0-.57.06-1.13.17-1.67h0c-5.52-3.28-19.15-11.38-20.62-12.25-.09-.06-.19-.09-.3-.1-.45-.06-1.69-.17-2.17.4-.11.13-.23.36-.22.78v25.69c0,.74.09,1.48.25,2.18.12.54.73.8,1.2.51l21.45-13.3Z"/>
    <path class="cls-3" d="M226.06,151.11c-.83-2.16-2.23-3.47-3-4.17,0,0-7.81-7.15-21.45-13.76,0,0-1.63-.79-2.59-.31,0,0-.08.1-.05.85,0,0,.04,26.64.04,26.68.66.36,3.21,1.87,4.2,5.02.57,1.81.33,3.31.27,3.73-.54,3.72-3.61,6.68-7.34,7.12-2.31.27-4.45-.4-6.12-1.67l-22.69,14.12c.41.34.84.65,1.3.93l21.21,12.59c3.26,1.94,7.32,1.94,10.58,0l21.21-12.59c3.15-1.87,5.07-5.25,5.07-8.91v-25.69h0c.02-.88-.04-2.33-.65-3.93Z"/>
  </g>
  <g>
    <path class="cls-3" d="M125.4,135.86c-.59-.23-1.15-.52-1.67-.86-.47-.32-1.08-.32-1.56-.04-6.89,4.07-13.78,8.14-20.66,12.21-.97.57-.97,1.98,0,2.56l23.77,14.11.12-27.98Z"/>
    <path class="cls-3" d="M155.89,147.82l-22.09-13.12c-.19.04-.37.11-.54.22-.64.45-1.35.81-2.09,1.07l-.16,27.68,24.18-14.36c.56-.33.78-.93.7-1.5Z"/>
  </g>
  <path class="cls-3" d="M130.79,199.32c1.24.44,2.35,1.15,3.25,2.07,0,0,20.89-13.37,20.89-13.37,0,0,.57-.53.66-1.07.03-.21.01-.52-.26-.93l-22.91-13.6c-.47-.28-.97-.49-1.47-.68l-.16,27.58Z"/>
  <g>
    <path class="cls-3" d="M123.23,200.34c.4-.28.82-.53,1.27-.73.37-.17.63-.53.63-.94l.12-26.99c-.57.19-1.14.43-1.67.75l-22.91,13.6c-.17.1-.33.21-.49.32-.63.44-.61,1.38.06,1.75l21.88,12.33c.35.2.78.16,1.12-.07Z"/>
    <path class="cls-3" d="M159.26,193.06c-.3-.18-.75-.1-1.07.22-7.26,4.47-14.51,8.94-21.77,13.4.01.2.03.4.03.6,0,4.66-3.78,8.44-8.44,8.44s-8.44-3.78-8.44-8.44c0-.59.08-1.15.19-1.7l-23.26-13.06c-.03.31-.06.63-.06.95v27.62c0,3.06,1.61,5.89,4.24,7.46l22.91,13.6c2.73,1.62,6.12,1.62,8.85,0l22.91-13.6c2.63-1.56,4.24-4.4,4.24-7.46v-27.62c-.03-.09-.12-.29-.32-.41Z"/>
  </g>
  <g>
    <path class="cls-3" d="M87.95,108.15c-7.32-4.39-14.65-8.78-21.97-13.18-1.76,1.34-4.05,2.02-6.51,1.62-3.63-.59-6.52-3.59-6.97-7.24-.68-5.45,3.83-10.04,9.26-9.49,1.35.14,2.61.63,3.71,1.37,1.63-.94,21.63-12.52,22.49-13.12.12-.08.45-.31.46-.63,0-.19-.1-.36-.22-.48l-22.91-13.6c-2.73-1.62-6.12-1.62-8.85,0l-22.91,13.6c-2.63,1.56-4.24,4.4-4.24,7.46v27.62c0,3.06,1.61,5.89,4.24,7.46l22.91,13.6c2.73,1.62,6.12,1.62,8.85,0l22.91-13.6s.27-.29.24-.66c-.04-.48-.47-.7-.49-.71Z"/>
    <path class="cls-3" d="M68.91,85.79c.5,1.53.5,2.98.2,4.33l21.48,12.93s.62.35,1.22.02c.57-.31.63-.94.64-.99v-27.62c.2-.5.07-1.05-.31-1.36-.44-.36-.99-.21-1.05-.19-7.39,4.3-14.79,8.59-22.18,12.89Z"/>
  </g>
  <path class="cls-3" d="M92.06,152.75c-2.74,1.62-5.47,3.23-8.21,4.85-1.37.55-2.94-.03-3.61-1.31-.66-1.24-.3-2.81.85-3.66,2.76-1.64,5.52-3.28,8.29-4.92-.2-.19-.43-.39-.69-.59-.24-.19-.49-.36-.76-.52l-22.91-13.6c-2.73-1.62-6.12-1.62-8.85,0l-22.91,13.6c-2.63,1.56-4.24,4.4-4.24,7.46v27.62c0,3.06,1.61,5.89,4.24,7.46l22.91,13.6c2.73,1.62,6.12,1.62,8.85,0l22.91-13.6c.37-.22.72-.48,1.05-.75l-23.16-13.89c-1.44,1.13-3.25,1.82-5.22,1.82-4.66,0-8.44-3.78-8.44-8.44s3.78-8.44,8.44-8.44c1.17,0,2.49.37,2.5.38h0c.47.17.95.36,1.46.58.5.22.98.44,1.42.66.68-.37,1.35-.74,2.03-1.11,1.24-.36,2.57.08,3.31,1.08.82,1.11.76,2.7-.18,3.81-.71.49-1.42.99-2.12,1.48.02.51.03,1.03.03,1.56,0,.68-.01,1.34-.04,1.98,7.65,4.55,15.3,9.1,22.96,13.66.13-.6.21-1.2.21-1.83v-27.62c0-.45-.04-.89-.11-1.32ZM43.42,160.06c-2.47,0-4.47-2-4.47-4.47s2-4.47,4.47-4.47,4.47,2,4.47,4.47-2,4.47-4.47,4.47Z"/>
  <path class="cls-3" d="M105.03,111.13c1.16,1.02,1.37,2.72.56,3.9-.71,1.03-2.08,1.49-3.35,1.09l-4.07-2.34c-.77-.44-1.74.11-1.74,1.01v26.14c0,.62.47,1.08,1.02,1.15.23.03.48-.02.71-.15,6.88-4.05,13.77-8.1,20.65-12.15.74-.44,1.23-1.23,1.2-2.09,0-.22,0-.44,0-.67.03-.58-.6-1.07-.6-1.07-1.11-.63-2.22-1.25-3.34-1.88-1.37-.83-1.81-2.64-.98-4,.83-1.37,2.65-1.81,4.03-.97,1.1.66,2.21,1.32,3.31,1.97.24-.21.56-.44.96-.66.59-.32,1.15-.48,1.56-.56.07-8.76.14-17.52.21-26.28,0-.9-.98-1.46-1.75-1l-23.16,13.75c-.76.45-.76,1.55,0,2,1.59.93,3.19,1.87,4.78,2.8Z"/>
  <line class="cls-1" x1="96.42" y1="112.78" x2="120.07" y2="126.34"/>
  <line class="cls-1" x1="134.29" y1="121.22" x2="187.01" y2="90.55"/>
  <path class="cls-3" d="M134.29,121.22c7.46-4.34,14.92-8.68,22.37-13.02.03-.03.54-.56.36-1.29-.17-.68-.79-.93-.84-.95-15.41-8.74-23.19-13.15-23.19-13.15.04.01.07.03.07.03,0,0-1.05-.72-1.59-.43-.21.11-.39.4-.41,1.11v26.41c.39-.03,1.26-.05,2.16.44.5.27.84.6,1.06.85Z"/>
  <g>
    <path class="cls-3" d="M187.04,85.95l-.03.05-23.45-13.82v29.89s0,.01,0,.02c0,.44.33.83.59.98.42.25.97.05,1.17-.03,1.59-.59,19.6-11.26,21.69-12.5-.4-1.41-.45-2.97.03-4.6Z"/>
    <path class="cls-3" d="M224.77,68.36l-27.62-16.4c-1.25-.74-2.79-.74-4.04,0l-26.41,15.68,23.46,13.6c8.5-5.03,17.31,4.12,11.59,12.59-.26.38-.59.72-.97.98-3.99,2.73-8.08,2.23-10.82.09,0,0,0,0,0,0-6.11,3.47-22.2,12.65-22.65,13.38-.18.3-.14.55-.14.55.06.32.38.54.64.66l22.91,13.6c.24.14.49.27.74.39.77.35,1.64-.23,1.64-1.08v-9.31c-.01-.19.02-.38.12-.55.53-.94,1.49-1.56,2.56-1.62,1.16-.07,2.27.53,2.87,1.53.1.17.15.38.15.58-.03,5.17-.04,8.98,0,9.6,0,.16.04.44.21.54.18.1.43-.02.55-.09l25.21-14.97c1.2-.71,1.94-2.01,1.94-3.4v-32.98c0-1.4-.74-2.69-1.94-3.4Z"/>
  </g>
  <g>
    <path class="cls-3" d="M128,56.85c-.86.07-1.5-.1-2.17-.28-1.38-.37-2.61-1.07-3.62-2.02h0c-3.05,1.74-21.2,12.09-22.58,13.15-.13.1-.48.37-.46.69,0,0,.03.44,1.49,1.28h0s23.47,13.6,23.47,13.6c.07,0,.19,0,.33-.02.12-.03.24-.08.34-.17.18-.29.19-.31.19-.31.01-5.95.02-9.78.02-9.78.02-1.65,1.36-2.98,2.98-3,1.65-.02,3.04,1.35,3.05,3.03,0,.85.07,9.74.07,9.74h0s.07.2.18.33c.15.17.37.2.41.21.16.02.29-.01.35-.03,7.76-4.54,15.52-9.07,23.28-13.61.61-.36,1.16-.79,1.65-1.28.03-.03.02-.08-.01-.1l-23.21-13.67s-.02,0-.03,0c-.02,0-.04.01-.04.02-.04.03-3.29,2.03-5.69,2.22Z"/>
    <path class="cls-3" d="M155.3,27.13l-22.85-13.56c-2.75-1.63-6.17-1.63-8.91,0l-22.85,13.56c-2.65,1.57-4.27,4.43-4.27,7.51v27.58c-.06.25.04.5.24.62.24.15.5.03.52.02,7.5-4.29,15.01-8.59,22.51-12.88h0c-.26-1.35-.22-2.81.38-4.36,1.39-3.57,4.96-6,8.78-5.61,4.26.43,7.58,4.03,7.58,8.4,0,.55-.06,1.09-.16,1.61h0s23.19,13.44,23.19,13.44c.06-.41.1-.82.1-1.24v-27.58c0-3.08-1.62-5.93-4.27-7.51Z"/>
  </g>
  <line class="cls-1" x1="89.37" y1="147.72" x2="66.19" y2="161.47"/>
  <line class="cls-1" x1="122.55" y1="134.81" x2="83.85" y2="157.6"/>
  <line class="cls-1" x1="98.16" y1="113.78" x2="119.64" y2="126.09"/>
</svg>