<?xml version="1.0" encoding="UTF-8"?>
<svg id="Livello_1" data-name="Livello 1" xmlns="http://www.w3.org/2000/svg" viewBox="0 0 512 512">
  <defs>
    <style>
      .cls-1 {
        fill: #fff;
      }
    </style>
  </defs>
  <path class="cls-1" d="M452.05,275.79h-116.3c-33.11,0-59.95,26.84-59.95,59.95v116.3c0,33.11,26.84,59.95,59.95,59.95h116.3c33.11,0,59.95-26.84,59.95-59.95v-116.3c0-33.11-26.84-59.95-59.95-59.95ZM471.41,452.68c0,10.39-8.42,18.81-18.81,18.81h-117.33c-10.39,0-18.81-8.42-18.81-18.81v-117.33c0-10.39,8.42-18.81,18.81-18.81h117.33c10.39,0,18.81,8.42,18.81,18.81v117.33Z"/>
  <path class="cls-1" d="M176.25,275.79H59.95c-33.11,0-59.95,26.84-59.95,59.95v116.3c0,33.11,26.84,59.95,59.95,59.95h116.3c33.11,0,59.95-26.84,59.95-59.95v-116.3c0-33.11-26.84-59.95-59.95-59.95ZM195.61,452.68c0,10.39-8.42,18.81-18.81,18.81H59.47c-10.39,0-18.81-8.42-18.81-18.81v-117.33c0-10.39,8.42-18.81,18.81-18.81h117.33c10.39,0,18.81,8.42,18.81,18.81v117.33Z"/>
  <path class="cls-1" d="M176.31,0H60.01C26.9,0,.06,26.84.06,59.95v116.3c0,33.11,26.84,59.95,59.95,59.95h116.3c33.11,0,59.95-26.84,59.95-59.95V59.95C236.26,26.84,209.42,0,176.31,0ZM195.67,176.89c0,10.39-8.42,18.81-18.81,18.81H59.52c-10.39,0-18.81-8.42-18.81-18.81V59.56c0-10.39,8.42-18.81,18.81-18.81h117.33c10.39,0,18.81,8.42,18.81,18.81v117.33Z"/>
  <path class="cls-1" d="M451.81,0h-116.3C302.4,0,275.56,26.84,275.56,59.95v116.3c0,33.11,26.84,59.95,59.95,59.95h116.3c33.11,0,59.95-26.84,59.95-59.95V59.95C511.76,26.84,484.92,0,451.81,0ZM471.17,176.89c0,10.39-8.42,18.81-18.81,18.81h-117.33c-10.39,0-18.81-8.42-18.81-18.81V59.56c0-10.39,8.42-18.81,18.81-18.81h117.33c10.39,0,18.81,8.42,18.81,18.81v117.33Z"/>
</svg>