<?xml version="1.0" encoding="UTF-8"?>
<svg id="Livello_1" data-name="Livello 1" xmlns="http://www.w3.org/2000/svg" viewBox="0 0 500 500">
  <defs>
    <style>
      .cls-1 {
        fill: #fff;
      }
    </style>
  </defs>
  <path class="cls-1" d="M388.4,86.69c-.54-2.56-1.87-8.55-6.81-12.15-4.26-3.1-9.29-3.08-11.85-2.96-217.42,10.35-278.67,81.19-278.67,81.19-17.57,20.32-26.4,38.53-28.89,43.85-24.05,51.44-17.02,100.21-14.65,113.48,2.75,15.43,14.83,77.42,72.43,119.11,71.2,51.54,154.02,27.91,164.83,24.58,15.14-4.66,56.97-18.16,88.21-58.95,15.51-20.25,23.09-40.29,26.96-53.63h0s25.36-78.53-11.56-254.52ZM351.96,372.02c-29.81,40.4-74.35,51.8-85.63,54.52-9.05,2.18-73.83,16.62-130.67-26.67,0,0-53.68-40.59-60.21-109.54-.99-10.44-3.99-48.12,16.95-86.01,0,0,8.03-14.54,20.14-27.6,30.55-32.98,122.45-61.35,244.75-70.77,6.32,24.2,14.54,62.12,17.48,109.33,4.36,70.03,7.27,115.97-22.81,156.74Z"/>
  <path class="cls-1" d="M274.33,358.39c-7.38,3.96-28.18,13.87-55.7,10.67-25.3-2.95-42.28-15.34-48.89-20.74-7.46-3-16,0-19.85,6.81-3.66,6.48-2.21,14.85,3.56,19.85,8.56,6.64,33.15,23.93,69.33,25.78,34.59,1.77,59.91-11.59,69.33-17.19,6.59-5.8,7.29-15.69,2.07-21.93-4.65-5.56-13.08-7.09-19.85-3.26Z"/>
</svg>