<?xml version="1.0" encoding="UTF-8"?>
<svg id="Livello_1" data-name="Livello 1" xmlns="http://www.w3.org/2000/svg" viewBox="0 0 512 512">
  <defs>
    <style>
      .cls-1 {
        fill: #fff;
        isolation: isolate;
      }
    </style>
  </defs>
  <path class="cls-1" d="M115.07,48.09c74.77-.27,149.53-.54,224.3-.81,13.73,1.19,25.68-9.55,26.07-22.89C365.84,10.9,354.29-.62,340.35,0H111.69C69.09,0,34.55,34.54,34.55,77.14v357.72c.75,9.83,3.99,34.5,22.59,54.54,5.26,5.67,12.77,13.76,25.04,17.94,12.15,4.15,29.51,4.65,29.51,4.65h0s79.47,0,227.68,0c14.94.66,26.87-11.82,26.08-25.39-.73-12.6-12.26-23.19-26.08-22.52-74.77-.2-149.53-.4-224.3-.59-18.16,0-32.89-14.72-32.89-32.89V80.98c0-18.16,14.72-32.89,32.89-32.89Z"/>
  <path class="cls-1" d="M204.11,231.94h194.22l-76.89-77.78c-5.78-10.34-3.26-23.37,5.78-30.67,8.68-7.01,21.31-7.06,30.22,0,36,36.15,72,72.3,108,108.44,1.47,1.18,11.6,9.59,12,24.01.42,15.47-10.72,24.74-12,25.77l-109.78,108.44c-9.83,5.7-22.13,4.33-30-3.11-8.78-8.3-10.21-22.42-2.89-32.89l74.67-73.78h-193.33c-10.83-3.15-18.3-13.16-18.22-24.39.07-11.11,7.51-20.94,18.22-24.06Z"/>
</svg>