<?xml version="1.0" encoding="UTF-8"?>
<svg id="Livello_1" data-name="Livello 1" xmlns="http://www.w3.org/2000/svg" viewBox="0 0 512 512">
  <defs>
    <style>
      .cls-1 {
        fill: #fff;
      }
    </style>
  </defs>
  <path class="cls-1" d="M63.9,256.5c.1,11.5,9.35,20.85,20.43,21.17,11.61.33,21.66-9.36,21.63-21.42v-72.06c.94-3.98,3.83-13.91,12.89-22.59,9.44-9.05,20.01-11.4,24-12.08h231.56l-30.67,31.56c-4.93,8.88-3.04,20.03,4.44,26.67,7.23,6.41,18.04,7.17,26.22,1.78,23.41-23.11,46.81-46.22,70.22-69.33.99-1.42,3.62-5.61,3.56-11.56-.06-5.68-2.55-9.67-3.56-11.11-23.41-24-46.81-48-70.22-72-9.92-5-21.75-2.35-28,5.78-5.24,6.82-5.79,16.5-1.33,24.44,9.63,10.07,19.26,20.15,28.89,30.22l-234.67,1.33c-7.22,1.05-32.93,5.66-53.33,28.44-17.63,19.68-21.07,41.5-21.93,49.33-.04,23.81-.09,47.62-.13,71.43Z"/>
  <path class="cls-1" d="M448.1,255.5c-.1-11.5-9.35-20.85-20.43-21.17-11.61-.33-21.66,9.36-21.63,21.42v72.06c-.94,3.98-3.83,13.91-12.89,22.59-9.44,9.05-20.01,11.4-24,12.08h-231.56l30.67-31.56c4.93-8.88,3.04-20.03-4.44-26.67-7.23-6.41-18.04-7.17-26.22-1.78-23.41,23.11-46.81,46.22-70.22,69.33-.99,1.42-3.62,5.61-3.56,11.56.06,5.68,2.55,9.67,3.56,11.11,23.41,24,46.81,48,70.22,72,9.92,5,21.75,2.35,28-5.78,5.24-6.82,5.79-16.5,1.33-24.44-9.63-10.07-19.26-20.15-28.89-30.22l234.67-1.33c7.22-1.05,32.93-5.66,53.33-28.44,17.63-19.68,21.07-41.5,21.93-49.33.04-23.81.09-47.62.13-71.43Z"/>
</svg>