<?xml version="1.0" encoding="UTF-8"?>
<svg id="Livello_1" data-name="Livello 1" xmlns="http://www.w3.org/2000/svg" viewBox="0 0 512 512">
  <defs>
    <style>
      .cls-1 {
        fill: #fff;
      }
    </style>
  </defs>
  <path class="cls-1" d="M394.67,198.64c-4.72-4.97-10.82-5.04-11.85-5.04-6.53.25-16.02.15-27.26-1.7-16.96-2.79-31.91-5.25-44.44-16.07-7.48-6.46-19.62-19.28-26.67-29.33-.92-1.31-4.59-6.22-11.56-8-6.53-1.67-11.8.49-13.33,1.19-18.57,5.53-37.14,11.06-55.7,16.59-2.88,1.39-8.83,4.74-13.63,11.56-4.66,6.62-5.88,13.13-6.26,16.3v162.44c-3.98-2.41-9.95-5.48-17.66-7.54-.87-.23-21.41-5.44-42.08,1.98-24.46,8.78-48.12,34.9-48,67.33.14,36.61,30.55,71.02,70.67,71.56,39.11.52,72.02-31.36,72.67-70.89v-129.78l143.41-44.15.06,110.88.02.04c-4.46-2.58-11.11-5.82-19.66-7.79-2.53-.58-23.12-5.05-43.83,3.68-24.59,10.36-44.23,37.17-43.67,67.11.69,36.49,31.27,71.27,71.44,71.33,45.01.07,70.25-43.5,71.78-71.33.12-2.16.09-4.07,0-5.63v-193.19c.03-1.1.05-6.83-4.44-11.56Z"/>
  <path class="cls-1" d="M419.56,85.01h-38v-38c-1.74-8.58-9.01-14.89-17.44-15.33-9.12-.48-17.53,6.02-19.44,15.33v38h-38c-8.35,2.2-14.22,9.81-14.22,18.44s5.87,16.25,14.22,18.44h38v38c1.3,9.14,9.21,16,18.44,16s17.14-6.86,18.44-16v-38h38c9.23-1.19,16.22-9.14,16.22-18.44s-6.99-17.26-16.22-18.44Z"/>
</svg>