<?xml version="1.0" encoding="UTF-8"?>
<svg id="Livello_1" data-name="Livello 1" xmlns="http://www.w3.org/2000/svg" viewBox="0 0 512 512">
  <defs>
    <style>
      .cls-1 {
        fill: #fff;
      }
    </style>
  </defs>
  <g>
    <path class="cls-1" d="M278.94,179.43V56.29c0-18.66-22.81-27.72-35.61-14.15l-46.53,49.32,82.14,87.97Z"/>
    <path class="cls-1" d="M456.5,435.26c-65.96-70.88-131.92-141.76-197.88-212.65l-92.29-98.84-.36.38c-21.42-22.77-42.85-45.53-64.27-68.3-10.38-9.48-26.39-9.37-36.44,0-10.4,9.68-11.32,26.36-1.78,37.33l49.92,53.13h-20.2c-28.47,0-51.56,23.08-51.56,51.56v116.15c0,28.47,23.08,51.56,51.56,51.56h51.87l98.28,104.18c12.8,13.57,35.61,4.51,35.61-14.15v-133.08c46.25,49.23,92.5,98.46,138.75,147.68,10.61,8.73,26.09,8.03,35.56-1.26,8.89-8.72,10.38-22.97,3.26-33.7Z"/>
  </g>
  <g>
    <path class="cls-1" d="M424.11,253.23c.4,26.52-5.26,49.45-12.82,68.11l33.15,35.33c13.64-25.09,25.91-59.15,25.94-100.71h-.01c.05-84.4-50.41-137.99-60.52-148.29-3.95-5.51-10.41-9.11-17.71-9.11-12.03,0-21.78,9.75-21.78,21.78,0,6.01,2.44,11.46,6.38,15.4,9.04,9.7,46.37,51.96,47.37,117.49Z"/>
    <path class="cls-1" d="M316.15,196.23c3.54,3.61,20.18,21.26,23.76,49.04l40.09,42.72c3.05-11.3,4.83-24.09,4.15-38.17-2.09-43.18-25.92-71.38-33.13-79.31-3.76-6.52-10.8-10.91-18.87-10.91-12.03,0-21.78,9.75-21.78,21.78,0,5.73,2.22,10.93,5.83,14.81-.02.01-.03.03-.05.04Z"/>
  </g>
</svg>