<?xml version="1.0" encoding="UTF-8"?>
<svg id="Livello_1" data-name="Livello 1" xmlns="http://www.w3.org/2000/svg" viewBox="0 0 512 512">
  <defs>
    <style>
      .cls-1 {
        fill: #fff;
      }
    </style>
  </defs>
  <path class="cls-1" d="M392.47,240.46c-2.91-39.78-28.24-63.74-33.78-68.74-.87-.51-5.13-2.87-10.37-1.48-6.96,1.85-9.31,8.67-9.48,9.19v91.85c11.46,12.25,22.91,24.49,34.37,36.74,4.91-6.8,21.86-32.03,19.26-67.56Z"/>
  <path class="cls-1" d="M490.46,183.41c-27.78-86.87-103.57-122.51-116.07-128.13-11.35-3.1-23.31,1.17-29.63,10.37-7.23,10.53-5.68,25.5,4.15,34.96,9.42,4.16,66.92,30.7,88.59,96.59,26.19,79.61-23.42,145.23-27.56,150.52,12.44,13.23,24.89,26.47,37.33,39.7,4.66-5.46,78.15-94.66,43.18-204.02Z"/>
  <path class="cls-1" d="M435.85,436C313.41,306.04,190.97,176.08,68.53,46.11c-10.52-10.18-27.34-10.01-37.42,0-9.67,9.6-10.4,25.53-1.34,36.24,17.74,18.92,35.48,37.85,53.21,56.77-4.79-.1-9.58-.2-14.37-.29-2.36-.33-25.87-3.16-42.96,14.85-15.09,15.9-13.62,35.86-13.34,38.91v118.24c0,28.98,26.47,52.49,59.13,52.49h59.48l112.71,106.06c14.68,13.81,40.84,4.59,40.84-14.41v-100.9c37.72,40.24,75.44,80.48,113.16,120.73,10.68,12.19,29.19,12.84,40,2.67,11.34-10.67,11.17-30.41-1.78-41.48Z"/>
  <path class="cls-1" d="M284.47,48.46c0-19-26.16-28.22-40.84-14.41l-66.49,62.57c35.78,38.02,71.55,76.04,107.33,114.07V48.46Z"/>
</svg>