<?xml version="1.0" encoding="UTF-8"?>
<svg id="Livello_1" data-name="Livello 1" xmlns="http://www.w3.org/2000/svg" viewBox="0 0 512 512">
  <defs>
    <style>
      .cls-1 {
        fill: #fff;
      }
    </style>
  </defs>
  <path class="cls-1" d="M484.44,127.58c-1.98-18.35-12.96-29.54-16-32.44l-60.44-60c-4.22-2.56-15.55-8.64-31.11-8-16.13.67-27.2,8.17-31.11,11.11-17.93,18.22-35.85,36.44-53.78,54.67l126.22,126.67,56.89-56c2.34-3.32,11.38-16.98,9.33-36Z"/>
  <path class="cls-1" d="M50.22,335.58c-3.22,3.02-8.74,8.99-12.3,18.22-3.05,7.91-3.38,14.9-3.26,19.11l-7.11,69.78c-.36,2.76-1.66,15.28,6.81,26.96,9.43,13,23.69,14.97,26.07,15.26,26.52-2.67,53.04-5.33,79.56-8,4.6-.1,12.47-.86,21.19-4.89,7.8-3.61,13.09-8.36,16.15-11.56,72.89-72.89,145.78-145.78,218.67-218.67-42.11-41.93-84.22-83.85-126.33-125.78-73.15,73.19-146.3,146.37-219.44,219.56Z"/>
</svg>