<?xml version="1.0" encoding="UTF-8"?>
<svg id="Livello_1" data-name="Livello 1" xmlns="http://www.w3.org/2000/svg" viewBox="0 0 512 512">
  <defs>
    <style>
      .cls-1 {
        fill: #fff;
      }

      .cls-2 {
        fill: #1f1f1f;
      }
    </style>
  </defs>
  <rect class="cls-2" x="0" y="0" width="512" height="512"/>
  <path class="cls-1" d="M377.15,162.63h-27.41v-27.41c-.59-4.68-4.62-8.22-9.33-8.22s-8.74,3.54-9.33,8.22v27.41h-27.41c-4.86.36-8.67,4.46-8.67,9.33s3.81,8.97,8.67,9.33h27.41v27.41c.04,5.09,4.24,9.26,9.33,9.26s9.29-4.17,9.33-9.26v-27.41h27.41c4.89-.32,8.74-4.43,8.74-9.33s-3.85-9.01-8.74-9.33Z"/>
  <path class="cls-1" d="M195.93,162.78c-18.16,0-32.87,14.92-32.87,33.33s14.72,33.33,32.87,33.33,32.87-14.92,32.87-33.33-14.72-33.33-32.87-33.33ZM196.04,211.15c-8.25,0-15.09-6.77-15.11-15.04-.02-8.27,6.79-15.06,15-15.12,8.31-.06,15.24,6.78,15.22,15.12-.02,8.25-6.85,15.04-15.11,15.04Z"/>
  <path class="cls-1" d="M376.12,223.05c-4.55-.08-8.56,3.33-9.23,7.95v72c-18.14-18.97-31.53-33.83-41.59-46.5-4.75-5.98-13.63-17.62-27.66-19.57-2.5-.35-4.59-.31-5.97-.23-2.35-.1-5.94.01-10,1.3-5.5,1.74-9.21,4.78-11.78,7.11-6.78,6.15-20.3,20.7-36.89,40.89-.93-1.63-15.65-26.66-37.07-25.99-6.75.21-12.61,2.93-14.15,3.66-6.11,2.9-9.88,6.7-21.67,20.89-4.02,4.84-8.78,10.66-14.09,17.33-.08-41-.16-82-.24-123,.47-3.34,2.32-13.26,10.78-21.89,7.98-8.14,17.17-10.35,20.56-11h104.89c4.19-1.16,7.14-4.9,7.29-9.15.16-4.5-2.86-8.61-7.29-9.85h-105c-4.9.83-24.31,4.69-38.07,22.44-9.39,12.11-11.54,24.73-12.15,30.52v155.93c.09.59.2,1.33.36,2.19,1.2,6.42,4.86,19.8,16.67,31.37,14.36,14.06,31.27,16.13,36.07,16.56h150.11c4.25-.21,23.97-1.64,39.44-18.04,13.26-14.05,15.17-30.36,15.56-35.26v-101.93c-.74-4.4-4.52-7.65-8.88-7.73ZM353.74,357c-8.73,8.13-18.71,9.58-22.07,9.93-52.1-.4-104.2-.79-156.3-1.19-3.25-.82-14.24-4.04-22.07-14.81-5.88-8.09-6.99-16.33-7.26-20,13.05-15.8,26.11-31.6,39.16-47.39.62-.67,4.26-4.52,10.18-4.61,5.07-.07,8.48,2.68,9.33,3.41,7.7,8.59,15.41,17.19,23.11,25.78.67.74,2.23,2.02,4.35,2.22,1.41.13,3.47-.21,6.17-2.52,7.17-6.15,30.87-36.57,42.07-48.15,1.91-1.97,5.64-5.66,10.81-5.93.98-.05,6.14-1.05,10.81,4.3,21.23,24.3,42.47,48.59,63.7,72.89-.14,2.81-1.1,15.92-12,26.07Z"/>
</svg>