<?xml version="1.0" encoding="UTF-8"?>
<svg id="Livello_1" data-name="Livello 1" xmlns="http://www.w3.org/2000/svg" viewBox="0 0 512 512">
  <defs>
    <style>
      .cls-1 {
        fill: #fff;
      }
    </style>
  </defs>
  <path class="cls-1" d="M462.67,178.83c-10.76-19.67-28.38-41.95-29.19-42.98-9.59-12.06-18.46-21.56-25.16-28.3-14.58-16.4-39.74-16.09-52.84-1.68-11.78,12.96-11.52,34.83,2.3,48.74,9.13,8.15,61.38,56.31,59.78,128.22-1.75,78.64-67.37,161.56-161.56,161.56-89.22,0-161.56-72.33-161.56-161.56,0-22.5,6.87-46.74,7.19-47.79,12.83-42.22,39.27-68.6,52.77-80.36,14.48-12.75,15.84-34.85,3.74-48.81-12.65-14.6-36.07-15.75-50.54-1.68-10.38,8.78-82.31,71.73-82.53,176.9-.02,11.89,1.46,111.04,83.88,178.86,60.81,50.04,128.15,52.13,147.04,52.06,12.18-.04,108.78-2.03,176.52-82.28,7.79-9.23,54.45-66.19,54.4-148.64,0-10.82-.83-59.43-24.25-102.25Z"/>
  <path class="cls-1" d="M255.89,224.84c16.31,0,30.56-11.42,34.11-27.35V26.16C285.86,10.81,271.87.05,256,0c-15.95-.05-30.06,10.73-34.22,26.16v171.33c3.55,15.92,17.8,27.35,34.11,27.35Z"/>
</svg>