<?xml version="1.0" encoding="UTF-8"?>
<svg id="Livello_1" data-name="Livello 1" xmlns="http://www.w3.org/2000/svg" viewBox="0 0 512 512">
  <defs>
    <style>
      .cls-1 {
        fill: #fff;
      }
    </style>
  </defs>
  <path class="cls-1" d="M413.33,209.56c2.18-1.13,4.38-.86,4.89-.81,4.34.4,15.95-3.61,22.21-8.22,10.21-7.52,12.15-21.03,12.6-25.48v-41.41c0-58.5-47.42-105.93-105.93-105.93h-182.22c-58.5,0-105.93,47.42-105.93,105.93v244.74c0,58.5,47.42,105.93,105.93,105.93h182.22c58.5,0,105.93-47.42,105.93-105.93v-50.44c-2.44-11.97-6.99-19.71-10.52-24.44-8.24-11.05-17.84-15.06-27.34-30.62-2.01-3.29-3.4-6.1-4.22-7.82v-53.56c.44-.53,1.22-1.33,2.37-1.93ZM249.96,453.51c-19.49,0-41.76,0-63.88-.03h0v-46.33c0-15.77,12.78-28.56,28.56-28.56h82.22c15.77,0,28.56,12.78,28.56,28.56v46.33h0s-41,.03-75.45.03ZM386.67,289.33c5.09,7.7,12.66,14.98,18.67,20.74,4.86,4.67,9.35,8.51,12.74,15.7,1.67,3.54,2.51,6.71,2.96,8.89,4.23,48.99-8.19,89.25-27.3,101.65-14.7,9.54-29.88,13.31-29.88,13.31-2.03.5-4.42,1.02-6.89,1.52v-46.78c0-32.03-25.97-58-58-58h-86.89c-32.03,0-58,25.97-58,58v48.08c-29.21-6.91-42.02-19.2-48.3-29.49-10.47-17.18-14.81-48.59-14.81-48.59v-234.67s4.48-32.95,14.22-49.48c7.94-13.47,26.05-27.38,69.93-31.11v50.07c1.56,7.56,8.28,13.04,16,13.04s14.44-5.47,16-13.04v-50.07h32.3v50.07c1.59,7.56,8.43,13.04,16.3,13.04s14.71-5.47,16.3-13.04v-50.07h31.26v50.07c1.59,7.56,8.43,13.04,16.3,13.04s14.71-5.47,16.3-13.04v-50.07c11.03-.43,34.29.43,54.18,15.96,30.51,23.8,31.55,65.26,31.89,78.56.24,9.33-.64,17.07-1.48,22.37-3.18-.07-18.4-.04-30.52,11.7-8.02,7.77-10.65,16.76-11.56,20.74l-.59,58.07c1.99,10.85,5.84,18.19,8.89,22.81Z"/>
</svg>