<?xml version="1.0" encoding="UTF-8"?>
<svg id="Livello_1" data-name="Livello 1" xmlns="http://www.w3.org/2000/svg" viewBox="0 0 512 512">
  <defs>
    <style>
      .cls-1 {
        fill: #fff;
      }
    </style>
  </defs>
  <path class="cls-1" d="M488.89,422.07l-95.35-95.35c19.72-31.5,31.12-68.71,31.12-108.58,0-113.4-92.2-205.33-205.93-205.33S12.81,104.74,12.81,218.14s92.2,205.33,205.93,205.33c39.29,0,76-10.97,107.24-30.01.11-.07.22-.14.33-.21l95.69,95.69c19.94,15.48,48.43,13.03,64.89-4.89,15.48-16.86,16.57-43.31,2-62ZM217.48,365.64c-81.7,0-147.93-66.04-147.93-147.5S135.78,70.64,217.48,70.64s147.93,66.04,147.93,147.5c0,29.22-8.52,56.46-23.23,79.38-12.12,18.9-28.45,34.85-47.66,46.56-22.44,13.67-48.81,21.55-77.03,21.55Z"/>
</svg>