<?xml version="1.0" encoding="UTF-8"?>
<svg id="Livello_1" data-name="Livello 1" xmlns="http://www.w3.org/2000/svg" viewBox="0 0 512 512">
  <defs>
    <style>
      .cls-1 {
        fill: #fff;
      }
    </style>
  </defs>
  <path class="cls-1" d="M509.29,327.76c-1.86-4.19-5.62-5.85-6.52-6.22-18.03-12.21-36.05-24.42-54.08-36.63v.02c1.34-9.12,2.05-18.45,2.05-27.94s-.69-18.49-1.99-27.46l.02.03,52.53-43.12c.46-.53,2.07-2.47,2.85-5.43,1.03-1.61,1.64-3.33,1.3-4.97-.37-1.79-2.33-5.84-2.33-5.83,0,0-38.04-69.1-50.32-87.59-1.51-2.27-5.14-7.7-10.98-8.52-2.67-.37-4.92.2-6.35.72-20.75,9.07-41.5,18.14-62.25,27.2-13.81-10.35-29.07-18.92-45.42-25.36-3.74-31.41-7.51-54.69-9.82-63.66-.74-2.86-2.22-7.73-6.48-10.64-3.61-2.47-7.55-2.44-8.98-2.44-94.26-.29-95.54-.19-98.1.02-2.64.21-9.2.66-12.8,5.4-1.63,2.14-2.24,4.39-2.49,5.89-3.55,22.53-7.1,45.06-10.65,67.6-15.44,6.61-29.84,15.12-42.9,25.26h0s-60.88-25.28-60.88-25.28c-.65-.51-4.44-3.4-9.78-2.67-5.22.71-8.07,4.35-8.59,5.04-17.48,30.42-34.96,60.84-52.44,91.26-.26.38-3.82,5.92-1.19,11.85,1.86,4.19,5.62,5.85,6.52,6.22,18.03,12.21,36.05,24.42,54.08,36.63v-.02c-1.34,9.12-2.05,18.45-2.05,27.94s.69,18.49,1.99,27.46l-.02-.03-52.53,43.12c-.46.53-2.07,2.47-2.85,5.43-1.03,1.61-1.64,3.33-1.3,4.97.37,1.79,2.33,5.84,2.33,5.83,0,0,38.04,69.1,50.32,87.59,1.51,2.27,5.14,7.7,10.98,8.52,2.67.37,4.92-.2,6.35-.72,20.75-9.07,41.5-18.14,62.25-27.2,13.81,10.35,29.07,18.92,45.42,25.36,3.74,31.41,7.51,54.69,9.82,63.66.74,2.86,2.22,7.73,6.48,10.64,3.61,2.47,7.55,2.44,8.98,2.44,94.26.29,95.54.19,98.1-.02,2.64-.21,9.2-.66,12.8-5.4,1.63-2.14,2.24-4.39,2.49-5.89,3.55-22.53,7.1-45.06,10.65-67.6,15.44-6.61,29.84-15.12,42.9-25.26h0s60.88,25.28,60.88,25.28c.65.51,4.44,3.4,9.78,2.67,5.22-.71,8.07-4.35,8.59-5.04,17.48-30.42,34.96-60.84,52.44-91.26.26-.38,3.82-5.92,1.19-11.85ZM254,347.48c-50.69,0-91.78-41.09-91.78-91.78s41.09-91.78,91.78-91.78,91.78,41.09,91.78,91.78-41.09,91.78-91.78,91.78Z"/>
</svg>