<?xml version="1.0" encoding="UTF-8"?>
<svg id="Livello_1" data-name="Livello 1" xmlns="http://www.w3.org/2000/svg" viewBox="0 0 512 512">
  <defs>
    <style>
      .cls-1 {
        fill: #fff;
      }
    </style>
  </defs>
  <path class="cls-1" d="M505.11,370.31l-97.93-79.87c-9.32-7.6-23.27-.96-23.27,11.06v50.87h-37.48c-6.61-1.57-17.81-5.16-29.02-13.93-8.48-6.63-13.91-13.83-17.17-18.96l-100.38-161.78c-6.02-9.96-20.96-31.59-49.15-46.52-24.45-12.94-47.11-14.61-58.63-14.67H0v64.44h96.38c4.96.14,13.06,1,22.06,5.04,10.68,4.79,17.37,11.7,20.73,15.7,38.89,61.83,77.77,123.65,116.66,185.48,6.47,8.53,17.67,21.1,34.94,31.7,21.22,13.03,41.37,16.8,52.78,18.07h40.37v51.16c0,12.03,13.96,18.66,23.27,11.06l97.93-79.87c9.18-7.49,9.18-21.53,0-29.02Z"/>
  <path class="cls-1" d="M300.24,192.51c3.26-5.14,8.7-12.34,17.17-18.96,11.21-8.76,22.41-12.35,29.02-13.93h37.48v50.87c0,12.03,13.96,18.66,23.27,11.06l97.93-79.87c9.18-7.49,9.18-21.53,0-29.02l-97.93-79.87c-9.32-7.6-23.27-.96-23.27,11.06v51.16h-40.37c-11.41,1.27-31.56,5.05-52.78,18.07-6.7,4.11-21.45,14.03-34.94,31.7-6.29,8.24-10.55,15.86-13.32,21.5l37.61,58.64,20.13-32.44Z"/>
  <path class="cls-1" d="M139.16,330.29c-3.35,4-10.05,10.92-20.73,15.7-9,4.03-17.1,4.9-22.06,5.04H0v64.44h92.09c11.52-.06,34.18-1.72,58.63-14.67,28.19-14.92,43.13-36.56,49.15-46.52l4.82-7.77c-12.64-20.04-25.28-40.08-37.91-60.12-9.2,14.63-18.4,29.26-27.6,43.89Z"/>
</svg>