<?xml version="1.0" encoding="UTF-8"?>
<svg id="Livello_1" data-name="Livello 1" xmlns="http://www.w3.org/2000/svg" viewBox="0 0 512 512">
  <defs>
    <style>
      .cls-1 {
        fill: #fff;
      }
    </style>
  </defs>
  <ellipse class="cls-1" cx="426.59" cy="362.52" rx="21.74" ry="21.56"/>
  <path class="cls-1" d="M509.49,306.61h0c-.75-2.11-1.67-4.15-2.73-6.09-31.21-69.7-62.41-139.4-93.62-209.11-2.25-4.2-8.18-13.92-20.15-20.74-13.67-7.79-26.8-7.01-31.41-6.52h-209.78c-5.06-.54-18.52-1.27-32.59,6.52-10.72,5.94-16.77,14.04-19.56,18.37L3.5,304.08h0c-2.25,5.22-3.5,10.97-3.5,17.02v84.04c0,23.76,19.26,43.02,43.02,43.02h425.96c23.76,0,43.02-19.26,43.02-43.02v-84.04c0-5.09-.89-9.96-2.51-14.49ZM38.04,278.08c25.68-57.88,51.36-115.75,77.04-173.63,1.1-2.48,5.02-10.49,14.38-15.52,9.2-4.93,17.88-3.88,20.58-3.45,67.36-.2,134.72-.4,202.07-.59,3.27-.32,28.8-2.46,41.11,14.22,1.64,2.23,3.31,5.14,4.52,8.89l75.26,170.07.27.21c-1.41-.14-2.84-.21-4.29-.21H43.02c-1.85,0-3.67.13-5.45.36l.47-.36ZM490.78,406.08c0,11.13-9.02,20.15-20.15,20.15H41.59c-11.13,0-20.15-9.02-20.15-20.15v-87.11c0-11.13,9.02-20.15,20.15-20.15h429.04c11.13,0,20.15,9.02,20.15,20.15v87.11Z"/>
</svg>