<?xml version="1.0" encoding="UTF-8"?>
<svg id="Livello_1" data-name="Livello 1" xmlns="http://www.w3.org/2000/svg" viewBox="0 0 512 512">
  <defs>
    <style>
      .cls-1 {
        fill: #fff;
      }
    </style>
  </defs>
  <path class="cls-1" d="M0,346.52h512v15.96c0,23.9-19.4,43.3-43.3,43.3H43.3c-23.9,0-43.3-19.4-43.3-43.3v-15.96h0Z"/>
  <path class="cls-1" d="M410,466.37h-52.89l-10.22-30.07h-181.93l-10.07,30.07h-52c-7.17,1.29-12.44,7.6-12.44,14.89s5.27,13.6,12.44,14.89h307.11c6.15-2.37,10.22-8.3,10.22-14.89s-4.08-12.52-10.22-14.89Z"/>
  <g>
    <ellipse class="cls-1" cx="405.94" cy="121.71" rx="14.95" ry="15.27"/>
    <path class="cls-1" d="M256,256.68c-24.42,0-44.22,19.95-44.22,44.56,0,5.34.94,10.46,2.65,15.21h83.14c1.71-4.75,2.65-9.86,2.65-15.21,0-24.61-19.8-44.56-44.22-44.56Z"/>
    <path class="cls-1" d="M370.89,286.71c-1.46-.14-5-.67-8.44-3.34-3.56-2.75-4.96-6.19-5.44-7.57-.89-4.31-2.35-9.54-4.78-15.25-2.53-5.93-5.42-10.76-8-14.47-.47-1.17-1.12-3.25-1-5.9.15-3.28,1.42-5.67,2.11-6.79,5.48-5.42,10.96-10.83,16.44-16.25l-20.89-21.81-17.22,16.69c-1.45.64-4.41,1.7-8.22,1.45-4.21-.28-7.22-2.01-8.56-2.89-2.95-1.93-6.62-4.02-11-5.9-4.17-1.79-8.03-2.98-11.33-3.78-1.41-.28-6.02-1.39-9.67-5.68-3.33-3.92-3.88-8.19-4-9.68-.04-6.34-.07-12.69-.11-19.03l-29.78-.11.11,19.92c.04,1.17,0,4.63-2.33,8.01-2.74,3.97-6.75,5.09-7.78,5.34-3.99.86-8.74,2.2-13.89,4.34-5.64,2.34-10.27,5.03-13.89,7.46-1.4.81-4.26,2.21-8.11,2.34-2.93.1-5.26-.58-6.67-1.11-5.81-5.75-11.63-11.5-17.44-17.25l-21,21.37,16,16.8c.64,1.22,1.67,3.56,1.78,6.68.12,3.45-.94,6.08-1.56,7.34-2.36,3.87-4.84,8.51-7.11,13.91-2.36,5.61-3.98,10.83-5.11,15.36-.34,1.22-1.35,4.22-4.22,6.68-3.74,3.2-8,3.25-9.11,3.23-6.56.04-13.11.07-19.67.11l-.11,29.51h61.56c-1.01-3.72-2.11-9.06-2.26-15.53-.56-24.36,12.95-41.88,16.48-46.32,2.9-3.65,24.07-29.34,59.54-29.11,27.92.18,46.6,16.31,53.57,23.33,3.78,3.81,23.69,23.88,22.44,52.1-.29,6.49-1.62,11.82-2.81,15.53h61.7l-.22-29.84-20,.11Z"/>
    <path class="cls-1" d="M512,61.56c0-25.24-20.41-45.71-45.59-45.71H45.59C20.41,15.85,0,36.31,0,61.56v254.89h90.89v-45.31c.09-1.45.52-5.33,3.44-8.9,4.01-4.9,9.66-5.52,10.78-5.62h24c.51-1.87,1.25-4.05,2.33-6.4,1.18-2.55,2.48-4.66,3.67-6.34-6.56-6.53-13.11-13.06-19.67-19.59-.63-1.35-2.07-4.88-1.44-9.46.64-4.64,3.02-7.67,4-8.79,14.3-14.17,28.59-28.34,42.89-42.51.69-.82,3.57-4.05,8.56-4.79,4.73-.7,8.27,1.31,9.22,1.89,6.44,6.49,12.89,12.98,19.33,19.47,1.64-1.09,3.64-2.26,6-3.34,2.53-1.15,4.88-1.92,6.89-2.45v-24.15c.16-1.27.93-6.03,5.11-9.79,3.7-3.34,7.85-3.88,9.22-4.01h61c1.09.01,6.27.18,10.44,4.34,4.85,4.83,4.41,11.13,4.33,12.02v21.59c1.63.66,3.25,1.33,4.89,2,2.69,1.11,5.35,2.22,8,3.34,6.04-5.68,12.07-11.35,18.11-17.03.87-.73,4.27-3.41,9.33-3.34,4.6.06,7.72,2.36,8.67,3.12,15,15.39,30,30.79,45,46.18.73.85,3.21,3.92,3.33,8.57.13,5.1-2.66,8.51-3.33,9.29-5.78,5.73-11.56,11.46-17.33,17.19l5.44,12.97h23.11c1.53.07,5.28.46,8.78,3.17,5.63,4.36,5.97,11.12,6,12.13v44.53h91V61.56ZM406.37,166.15c-25,0-45.26-19.95-45.26-44.55s20.26-44.55,45.26-44.55,45.26,19.95,45.26,44.55-20.26,44.55-45.26,44.55Z"/>
  </g>
</svg>