<?xml version="1.0" encoding="UTF-8"?>
<svg id="Livello_1" data-name="Livello 1" xmlns="http://www.w3.org/2000/svg" viewBox="0 0 512 512">
  <defs>
    <style>
      .cls-1 {
        fill: #fff;
        isolation: isolate;
      }
    </style>
  </defs>
  <path class="cls-1" d="M406.08,0H105.92C47.42,0,0,47.42,0,105.92v300.17c0,58.5,47.42,105.92,105.92,105.92h300.17c58.5,0,105.92-47.42,105.92-105.92V105.92c0-58.5-47.42-105.92-105.92-105.92ZM472.3,409.39c0,33.75-27.36,61.11-61.11,61.11H101.56c-33.75,0-61.11-27.36-61.11-61.11V102.28c0-33.75,27.36-61.11,61.11-61.11h309.63c33.75,0,61.11,27.36,61.11,61.11v307.11Z"/>
  <path class="cls-1" d="M209.56,180.05l-70.67-70.22c-9.23-4.97-20.54-2.87-26.89,4.67-5.5,6.53-6.42,16.09-2.22,24,17.41,17.63,34.81,35.26,52.22,52.89l-52.22,52.89c-5.1,8.43-3.9,19.27,2.85,26.26,6.98,7.22,18.25,8.64,26.92,3.3,23.33-23.11,46.67-46.22,70-69.33,1.04-1.43,4.37-6.36,4-13.33-.3-5.64-2.87-9.57-4-11.11Z"/>
  <path class="cls-1" d="M326,235.61c-32.22-.3-64.44-.59-96.67-.89-9.3,2.8-15.72,11.41-15.75,21.11-.03,9.74,6.4,18.41,15.75,21.23h96.67c9.11-2.79,15.36-11.27,15.33-20.78-.03-9.47-6.27-17.88-15.33-20.67Z"/>
</svg>