<?xml version="1.0" encoding="UTF-8"?>
<svg id="Livello_1" data-name="Livello 1" xmlns="http://www.w3.org/2000/svg" viewBox="0 0 512 512">
  <defs>
    <style>
      .cls-1 {
        fill: #fff;
      }
    </style>
  </defs>
  <path class="cls-1" d="M217.82,469.04c-105.31-22.56-179.02-115.98-176.1-218.16,2.97-103.86,84.09-180.83,158.96-200.66,49.65-13.15,99.93-2.05,103.07-1.33,31.92,7.36,55.79,20.55,70.44,30.17l-17.73,25.09c-2.82,3.99.3,9.46,5.17,9.06l74.01-6.03c7.62-.62,12.82-7.99,10.86-15.38l-19.04-71.77c-1.25-4.72-7.45-5.84-10.27-1.85l-18.72,26.5c-17.23-11.8-46.76-28.9-87.03-37.87,0,0-54.17-12.06-108.74,0C82.09,33.48-3.17,142.5.04,264.6c3.13,119.18,89.81,221.8,208,245.33,14.01,3.19,26.8-6.64,27.84-18.32.87-9.78-6.58-20.03-18.06-22.57Z"/>
  <path class="cls-1" d="M461.38,194.38c5.79,9.86,18.12,13.41,27.56,8.59,8.35-4.27,12.84-14.28,10.37-24-2.52-6.91-5.04-13.83-7.56-20.74-6.02-7.6-16.4-10.26-25.19-6.52-8.45,3.59-13.69,12.35-12.89,21.63,2.57,7.01,5.14,14.02,7.7,21.04Z"/>
  <path class="cls-1" d="M511.93,242.55c-3.1-9.19-11.97-15.19-21.51-14.63-9.17.53-17.06,7.01-19.43,16.01.05,7.47.1,14.94.15,22.4,2.12,11.24,12.54,18.74,23.04,17.39,9.3-1.2,16.91-9.11,17.86-19.09-.04-7.36-.08-14.72-.12-22.07Z"/>
  <path class="cls-1" d="M486.34,307.67c-8.86-2.41-18.4,1.23-23.51,9.01l-6.97,21.29c-1.56,11.33,5.93,21.75,16.32,23.8,9.2,1.82,18.93-3.27,23-12.43,2.3-6.99,4.6-13.98,6.9-20.97-.02-9.7-6.53-18.2-15.75-20.71Z"/>
  <path class="cls-1" d="M455.63,382.04c-7.66-5.07-17.86-4.61-25.15,1.18-4.43,6.01-8.87,12.02-13.3,18.03-5.04,10.27-1.19,22.51,8.03,27.73,8.16,4.61,19,2.84,25.74-4.58,4.38-5.91,8.76-11.83,13.14-17.74,3.02-9.21-.49-19.33-8.45-24.6Z"/>
  <path class="cls-1" d="M378.36,434.12c-6.18,4.19-12.37,8.37-18.55,12.56-8.17,8-8.63,20.83-1.68,28.82,6.16,7.07,16.96,9.01,25.79,4.26,6.1-4.11,12.2-8.23,18.3-12.34,5.92-7.68,5.99-18.39.24-26.01-5.53-7.33-15.3-10.3-24.1-7.28Z"/>
  <path class="cls-1" d="M312.8,465.01c-7.35,1.66-14.7,3.31-22.04,4.97-10.62,4.51-15.77,16.38-12.18,26.45,3.18,8.91,12.62,14.7,22.66,13.49,7.24-1.62,14.49-3.24,21.73-4.86,8.38-5.03,12.39-15.07,9.79-24.34-2.5-8.92-10.58-15.3-19.96-15.7Z"/>
  <path class="cls-1" d="M243.9,91.56c-7.78-.2-14.85,4.9-17.19,12.44v170.07c52.15,26.67,104.3,53.33,156.44,80,8.99,1.49,17.43-3.94,19.56-11.85,1.76-6.56-1.06-13.89-7.11-18.07l-135.41-70.52V104.01c-2.23-7.23-8.83-12.26-16.3-12.44Z"/>
</svg>