<?xml version="1.0" encoding="UTF-8"?>
<svg id="Livello_1" data-name="Livello 1" xmlns="http://www.w3.org/2000/svg" viewBox="0 0 64 64">
  <defs>
    <style>
      .cls-1 {
        fill: #fff;
      }
    </style>
  </defs>
  <path class="cls-1" d="M49.9,31.97c-6.11-8.88-15.48-10.83-17.37-11.19h-10.94c.98-1.01,1.96-2.02,2.94-3.04,1.36-1.55,1.16-3.79-.14-4.87-.99-.82-2.55-.9-3.83-.13-3.37,3.35-6.74,6.69-10.11,10.04-.11.08-.98.73-1.04,1.89-.06,1.3.96,2.06,1.04,2.11,3.36,3.36,6.72,6.72,10.07,10.07,1.33.95,3.06.9,4.11,0,1.33-1.14,1.45-3.53-.11-5.04-.98-1.01-1.96-2.02-2.94-3.04,3.65,0,7.3.02,10.94.03,1.37.29,7.67,1.79,11.81,7.9,3.52,5.19,3.31,10.51,3.19,12.13.3,1.69,1.77,2.94,3.48,2.94,1.72,0,3.22-1.24,3.52-2.94.14-2.36.28-9.72-4.63-16.87Z"/>
</svg>