<?xml version="1.0" encoding="UTF-8"?>
<svg id="Livello_1" data-name="Livello 1" xmlns="http://www.w3.org/2000/svg" viewBox="0 0 96 96">
  <defs>
    <style>
      .cls-1 {
        fill: #fff;
      }
    </style>
  </defs>
  <path class="cls-1" d="M71.19,27.57l-22.09-19.09c-.57-.49-1.41-.49-1.98,0l-22.09,19.09c-1.8,1.55-.7,4.5,1.68,4.5h13.33v32.87c0,1.73,1.4,3.13,3.13,3.13h9.9c1.73,0,3.13-1.4,3.13-3.13v-32.87h13.33c2.38,0,3.47-2.95,1.68-4.5Z"/>
  <path class="cls-1" d="M84.11,80.11H12.11c-2.21,0-4,1.79-4,4s1.79,4,4,4h72c2.21,0,4-1.79,4-4s-1.79-4-4-4Z"/>
</svg>