<?xml version="1.0" encoding="UTF-8"?>
<svg id="Livello_1" data-name="Livello 1" xmlns="http://www.w3.org/2000/svg" viewBox="0 0 512 512">
  <defs>
    <style>
      .cls-1 {
        fill: #fff;
      }

      .cls-2 {
        fill: #1f1f1f;
      }
    </style>
  </defs>
  <rect class="cls-2" width="512" height="512"/>
  <path class="cls-1" d="M128.89,303c2.53-7.69,9.59-12.99,17.56-13.22,8.36-.24,16.01,5.15,18.67,13.22v28.89c.35,3.15,1.85,12.82,9.89,21.11,9.87,10.17,22.35,10.81,25,10.89h112c2.91-.18,14.35-1.23,23.89-10.67,10.24-10.13,10.92-22.64,11-25.33v-25.78c2.66-7.7,9.96-12.9,18.11-12.9s15.45,5.2,18.11,12.9v34c-1.12,7.45-4.77,24.49-18.67,39.56-3.46,3.75-12.42,13.25-26.74,18.39-10.17,3.65-25.71,6.06-25.71,6.06,0,0-121.89-.22-121.89-.22,0,0-13.69-3.94-23.33-8.89-10.66-5.47-17.26-12.65-19.89-15.56-13.09-14.48-16.79-31.12-18-39.44v-33Z"/>
  <path class="cls-1" d="M238,125.89c2.31-7.92,9.55-13.44,17.74-13.56,8.38-.12,15.89,5.44,18.26,13.56.04,45.63.07,91.26.11,136.89l28.11-26.78c7.07-3.05,15.32-1.45,20.67,4,5.18,5.28,6.72,13.21,3.89,20.11-18.48,19.17-36.96,38.34-55.44,57.5-.76.89-6.38,7.23-15.6,7.09-8.33-.13-13.48-5.47-14.38-6.43-18.82-19.13-37.65-38.26-56.47-57.38-3.13-7.13-1.57-15.46,3.89-20.89,5.24-5.21,13.16-6.83,20.11-4.11,9.7,9.07,19.41,18.15,29.11,27.22"/>
</svg>