<?xml version="1.0" encoding="UTF-8"?>
<svg id="Livello_1" data-name="Livello 1" xmlns="http://www.w3.org/2000/svg" viewBox="0 0 512 512">
  <defs>
    <style>
      .cls-1 {
        fill: #fff;
      }
    </style>
  </defs>
  <path class="cls-1" d="M243.33,42.19l-98.28,104.18h-51.87c-28.47,0-51.56,23.08-51.56,51.56v116.15c0,28.47,23.08,51.56,51.56,51.56h51.87l98.28,104.18c12.8,13.57,35.61,4.51,35.61-14.15V56.34c0-18.66-22.81-27.72-35.61-14.15Z"/>
  <path class="cls-1" d="M384.15,249.87c-2.09-43.18-25.92-71.38-33.13-79.31h0c-3.76-6.52-10.8-10.91-18.87-10.91-12.03,0-21.78,9.75-21.78,21.78,0,5.73,2.22,10.93,5.83,14.81-.02.01-.03.03-.05.04,4.02,4.1,24.99,26.35,24.44,61-.51,31.95-18.96,52.52-23.37,57.19,0,0,0,0,0,0-4.22,3.97-6.85,9.6-6.85,15.85,0,12.03,9.75,21.78,21.78,21.78,7.61,0,14.31-3.91,18.2-9.83,0,0,0,0,0,0,5.98-6.51,36.29-40.87,33.8-92.4Z"/>
  <path class="cls-1" d="M470.37,256c.05-84.39-50.41-137.98-60.52-148.28h0c-3.95-5.51-10.41-9.11-17.71-9.11-12.03,0-21.78,9.75-21.78,21.78,0,6.01,2.44,11.46,6.38,15.4,9.04,9.7,46.37,51.96,47.37,117.49,1.03,67.89-37.67,112.25-46.25,121.64-4.59,3.99-7.49,9.88-7.49,16.44,0,12.03,9.75,21.78,21.78,21.78,7.3,0,13.76-3.6,17.71-9.11,10.14-10.34,60.46-63.8,60.52-148.02Z"/>
</svg>